HIERARCHY
ROOT Hips
{
	OFFSET 0.000000 0.000000 0.000000
	CHANNELS 6 Xposition Yposition Zposition Zrotation Yrotation Xrotation 
	JOINT LHipJoint
	{
		OFFSET 0.000000 0.000000 0.000000
		CHANNELS 3 Zrotation Yrotation Xrotation
		JOINT LeftUpLeg
		{
			OFFSET 1.363060 -1.794630 0.839290
			CHANNELS 3 Zrotation Yrotation Xrotation
			JOINT LeftLeg
			{
				OFFSET 2.448110 -6.726130 0.000000
				CHANNELS 3 Zrotation Yrotation Xrotation
				JOINT LeftFoot
				{
					OFFSET 2.562200 -7.039590 0.000000
					CHANNELS 3 Zrotation Yrotation Xrotation
					JOINT LeftToeBase
					{
						OFFSET 0.157640 -0.433110 2.322550
						CHANNELS 3 Zrotation Yrotation Xrotation
						End Site
						{
							OFFSET 0.000000 0.000000 0.000000
						}
					}
				}
			}
		}
	}
	JOINT RHipJoint
	{
		OFFSET 0.000000 0.000000 0.000000
		CHANNELS 3 Zrotation Yrotation Xrotation
		JOINT RightUpLeg
		{
			OFFSET -1.305520 -1.794630 0.839290
			CHANNELS 3 Zrotation Yrotation Xrotation
			JOINT RightLeg
			{
				OFFSET -2.542530 -6.985550 0.000000
				CHANNELS 3 Zrotation Yrotation Xrotation
				JOINT RightFoot
				{
					OFFSET -2.568260 -7.056230 0.000000
					CHANNELS 3 Zrotation Yrotation Xrotation
					JOINT RightToeBase
					{
						OFFSET -0.164730 -0.452590 2.363150
						CHANNELS 3 Zrotation Yrotation Xrotation
						End Site
						{
							OFFSET 0.000000 0.000000 0.000000
						}
					}
				}
			}
		}
	}
	JOINT LowerBack
	{
		OFFSET 0.000000 0.000000 0.000000
		CHANNELS 3 Zrotation Yrotation Xrotation
		JOINT Spine
		{
			OFFSET 0.028270 2.035590 -0.193380
			CHANNELS 3 Zrotation Yrotation Xrotation
			JOINT Spine1
			{
				OFFSET 0.056720 2.048850 -0.042750
				CHANNELS 3 Zrotation Yrotation Xrotation
				JOINT Neck
				{
					OFFSET 0.000000 0.000000 0.000000
					CHANNELS 3 Zrotation Yrotation Xrotation
					JOINT Neck1
					{
						OFFSET -0.054170 1.746240 0.172020
						CHANNELS 3 Zrotation Yrotation Xrotation
						JOINT Head
						{
							OFFSET 0.104070 1.761360 -0.123970
							CHANNELS 3 Zrotation Yrotation Xrotation
							End Site
							{
								OFFSET 0.000000 0.000000 0.000000
							}
						}
					}
				}
				JOINT LeftShoulder
				{
					OFFSET 0.000000 0.000000 0.000000
					CHANNELS 3 Zrotation Yrotation Xrotation
					JOINT LeftArm
					{
						OFFSET 3.362410 1.200890 -0.311210
						CHANNELS 3 Zrotation Yrotation Xrotation
						JOINT LeftForeArm
						{
							OFFSET 4.983000 -0.000000 -0.000000
							CHANNELS 3 Zrotation Yrotation Xrotation
							JOINT LeftHand
							{
								OFFSET 3.483560 -0.000000 -0.000000
								CHANNELS 3 Zrotation Yrotation Xrotation
								JOINT LeftFingerBase
								{
									OFFSET 0.000000 0.000000 0.000000
									CHANNELS 3 Zrotation Yrotation Xrotation
									JOINT LeftHandIndex1
									{
										OFFSET 0.715260 -0.000000 -0.000000
										CHANNELS 3 Zrotation Yrotation Xrotation
										End Site
										{
											OFFSET 0.000000 0.000000 0.000000
										}
									}
								}
								JOINT LThumb
								{
									OFFSET 0.000000 0.000000 0.000000
									CHANNELS 3 Zrotation Yrotation Xrotation
									End Site
									{
										OFFSET 0.000000 0.000000 0.000000
									}
								}
							}
						}
					}
				}
				JOINT RightShoulder
				{
					OFFSET 0.000000 0.000000 0.000000
					CHANNELS 3 Zrotation Yrotation Xrotation
					JOINT RightArm
					{
						OFFSET -3.136600 1.374050 -0.404650
						CHANNELS 3 Zrotation Yrotation Xrotation
						JOINT RightForeArm
						{
							OFFSET -5.241900 -0.000000 -0.000000
							CHANNELS 3 Zrotation Yrotation Xrotation
							JOINT RightHand
							{
								OFFSET -3.444170 -0.000000 -0.000000
								CHANNELS 3 Zrotation Yrotation Xrotation
								JOINT RightFingerBase
								{
									OFFSET 0.000000 0.000000 0.000000
									CHANNELS 3 Zrotation Yrotation Xrotation
									JOINT RightHandIndex1
									{
										OFFSET -0.622530 -0.000000 -0.000000
										CHANNELS 3 Zrotation Yrotation Xrotation
										End Site
										{
											OFFSET 0.000000 0.000000 0.000000
										}
									}
								}
								JOINT RThumb
								{
									OFFSET 0.000000 0.000000 0.000000
									CHANNELS 3 Zrotation Yrotation Xrotation
									End Site
									{
										OFFSET 0.000000 0.000000 0.000000
									}
								}
							}
						}
					}
				}
			}
		}
	}
}
MOTION
Frames: 7
Frame Time: 0.008333
1.946368 16.812262 -1.715849 179.714063 37.889910 -160.030875 -10.762183 0.463159 -0.578247 -7.143272 -13.396582 -2.837324 -1.823862 0.792284 23.710185 0.174523 -2.324908 -12.153216 0.064000 -0.000000 -42.058600 7.350542 0.384324 1.704750 0.502642 11.322778 -39.399166 2.227011 -0.439250 9.624010 0.687790 4.171798 11.571219 0.883900 -0.000000 -41.625900 0.309742 -1.379784 5.157266 -1.196328 -1.316697 -1.576549 -7.846714 -1.355219 1.332711 3.289157 1.869109 3.752355 -5.992338 -0.466231 2.473887 0.000000 0.000000 0.000000 -9.716871 -4.570807 2.063929 -61.724040 -18.563218 10.723817 -3.306984 -14.696407 -0.011493 8.182470 -0.095225 -0.012694 -0.040712 0.085484 0.000000 0.000000 0.000000 0.000000 0.000000 0.000000 0.000000 18.226198 -2.358589 -0.746908 66.530002 7.639065 -3.664794 2.984955 24.586171 0.010401 0.519560 7.895658 0.031911 0.066496 -0.072206 0.000000 0.000000 0.000000 0.000000 0.000000 0.000000 0.000000 
2.040300 16.834231 -1.781392 -179.962493 37.173408 -159.710984 -10.979217 0.491689 -0.628945 -6.420102 -12.934373 -3.614074 -1.680213 0.944787 25.115440 0.129388 -2.385531 -11.031346 0.073900 -0.000000 -45.886900 7.243436 0.298583 1.611011 1.123858 11.135198 -39.291125 2.286336 -0.479377 10.268763 0.656322 3.928879 11.045619 0.764900 -0.000001 -40.897300 0.907879 -1.298963 5.226609 -1.070056 -1.258569 -1.558232 -7.794304 -1.300698 1.364904 3.167952 2.215688 3.858034 -5.989527 -0.465789 2.498011 0.000000 0.000000 0.000000 -9.810993 -4.350300 2.056083 -61.556222 -18.394558 9.358330 -3.256455 -13.907777 -0.012011 8.687192 -0.144571 -0.017137 -0.034184 0.083539 0.000000 0.000000 0.000000 0.000000 0.000000 0.000000 0.000000 18.054219 -2.061088 -0.741841 66.358744 8.257149 -3.904149 3.034474 23.817473 0.010550 0.474286 7.848043 0.028408 0.068527 -0.071024 0.000000 0.000000 0.000000 0.000000 0.000000 0.000000 0.000000 
2.133369 16.859284 -1.844974 -179.657246 36.432429 -159.422587 -11.198025 0.522094 -0.698002 -5.690651 -12.327775 -4.500800 -1.530827 1.101105 26.619761 0.083794 -2.497532 -9.788762 0.076900 0.000000 -49.565300 7.141282 0.218678 1.517946 1.747891 10.924102 -39.081753 2.357071 -0.499586 10.788432 0.625475 3.695214 10.335235 0.642100 0.000000 -40.127400 1.477189 -1.229002 5.317191 -0.948245 -1.208820 -1.535217 -7.737767 -1.254618 1.394296 3.089955 2.573750 3.978196 -5.977782 -0.464924 2.526772 0.000000 0.000000 0.000000 -9.807105 -4.152324 2.040284 -61.446946 -18.200050 8.062804 -3.203992 -13.241218 -0.012443 9.163638 -0.202744 -0.022675 -0.028432 0.081567 0.000000 0.000000 0.000000 0.000000 0.000000 0.000000 0.000000 17.891983 -1.753696 -0.734107 66.188215 8.917295 -4.166486 3.087926 22.980900 0.010679 0.468214 7.763260 0.027603 0.070456 -0.069407 0.000000 0.000000 0.000000 0.000000 0.000000 0.000000 0.000000 
2.226214 16.886705 -1.906435 -179.382048 35.652669 -159.168245 -11.412968 0.553561 -0.779590 -4.967832 -11.599945 -5.500969 -1.376273 1.258952 28.219520 0.041072 -2.656095 -8.426425 0.066900 0.000000 -53.050501 7.050820 0.146130 1.427162 2.358441 10.675740 -38.774361 2.435052 -0.499973 11.161523 0.593291 3.464310 9.515502 0.519900 -0.000000 -39.318300 2.004356 -1.171868 5.421377 -0.833603 -1.169148 -1.509306 -7.678095 -1.218642 1.420356 3.066163 2.928646 4.110635 -5.957308 -0.463695 2.560002 0.000000 0.000000 0.000000 -9.698493 -3.993147 2.017452 -61.390748 -17.959414 6.889290 -3.153432 -12.719039 -0.012744 9.581539 -0.257083 -0.028104 -0.023924 0.079529 0.000000 0.000000 0.000000 0.000000 0.000000 0.000000 0.000000 17.752385 -1.451478 -0.723783 66.016398 9.611574 -4.438851 3.144113 22.101912 0.010775 0.507050 7.638417 0.029597 0.072184 -0.067346 0.000000 0.000000 0.000000 0.000000 0.000000 0.000000 0.000000 
2.319572 16.915803 -1.965468 -179.155234 34.824823 -158.954287 -11.617050 0.584578 -0.866460 -4.270658 -10.789996 -6.609779 -1.218371 1.415440 29.910349 0.006131 -2.843561 -6.972764 0.038200 0.000000 -56.078900 6.978962 0.082910 1.338346 2.940326 10.370822 -38.380793 2.515810 -0.482145 11.380094 0.559138 3.235910 8.660232 0.403500 0.000000 -38.481400 2.476203 -1.128458 5.531648 -0.728820 -1.140318 -1.482357 -7.615716 -1.193484 1.442430 3.105496 3.268463 4.253177 -5.928338 -0.462160 2.597465 0.000000 0.000000 0.000000 -9.484594 -3.886089 1.988954 -61.378736 -17.659345 5.888566 -3.109125 -12.356011 -0.012877 9.910157 -0.292962 -0.032027 -0.021102 0.077449 0.000000 0.000000 0.000000 0.000000 0.000000 0.000000 0.000000 17.646560 -1.166066 -0.710901 65.839463 10.328513 -4.707455 3.201378 21.209904 0.010817 0.592397 7.474279 0.034490 0.073619 -0.064877 0.000000 0.000000 0.000000 0.000000 0.000000 0.000000 0.000000 
2.413617 16.945865 -2.022179 -178.983085 33.940669 -158.779614 -11.805331 0.613141 -0.951749 -3.615961 -9.938458 -7.818350 -1.058061 1.568111 31.683996 -0.016320 -3.033692 -5.455444 -0.012700 0.000000 -58.450000 6.930172 0.029973 1.250243 3.484268 9.992010 -37.916987 2.595999 -0.448498 11.445480 0.523064 3.009288 7.835900 0.296200 -0.000000 -37.641000 2.886392 -1.098382 5.641530 -0.635433 -1.122147 -1.455881 -7.551818 -1.178875 1.460502 3.213299 3.581671 4.402489 -5.891355 -0.460372 2.638492 0.000000 0.000000 0.000000 -9.173340 -3.839330 1.956199 -61.399189 -17.296177 5.106739 -3.075013 -12.158805 -0.012825 10.120564 -0.295119 -0.032738 -0.020295 0.075392 0.000000 0.000000 0.000000 0.000000 0.000000 0.000000 0.000000 17.582596 -0.907995 -0.695444 65.652167 11.058564 -4.954198 3.258109 20.333895 0.010796 0.721996 7.275280 0.041782 0.074699 -0.062067 0.000000 0.000000 0.000000 0.000000 0.000000 0.000000 0.000000 
2.508564 16.976255 -2.076698 -178.873041 32.998128 -158.643289 -11.973915 0.637113 -1.029619 -3.017973 -9.086054 -9.113641 -0.896456 1.714813 33.527714 -0.022178 -3.192818 -3.906412 -0.085200 -0.000000 -60.022100 6.907133 -0.012306 1.160799 3.984889 9.526042 -37.401333 2.672735 -0.401987 11.367281 0.485812 2.784497 7.095443 0.199499 -0.000000 -36.834400 3.232814 -1.080096 5.746334 -0.554155 -1.113438 -1.430115 -7.487212 -1.173416 1.477854 3.390486 3.848534 4.550204 -5.847631 -0.458389 2.680847 0.000000 0.000000 0.000000 -8.779376 -3.848947 1.919345 -61.438256 -16.885902 4.579908 -3.054382 -12.119435 -0.012581 10.188778 -0.252681 -0.028942 -0.021686 0.073430 0.000000 0.000000 0.000000 0.000000 0.000000 0.000000 0.000000 17.568245 -0.695703 -0.677885 65.445097 11.808181 -5.135498 3.312872 19.492644 0.010713 0.881682 7.055029 0.050474 0.075457 -0.059006 0.000000 0.000000 0.000000 0.000000 0.000000 0.000000 0.000000 
